<?xml version="1.0" encoding="utf-8"?>
<!-- Generator: Adobe Illustrator 23.0.0, SVG Export Plug-In . SVG Version: 6.00 Build 0)  -->
<svg version="1.1" id="Layer_1" xmlns="http://www.w3.org/2000/svg" xmlns:xlink="http://www.w3.org/1999/xlink" x="0px" y="0px"
	 viewBox="0 0 30 30" style="enable-background:new 0 0 30 30;" xml:space="preserve">
<style type="text/css">
	.st0{fill:none;stroke:#808080;stroke-linecap:square;stroke-linejoin:round;stroke-miterlimit:10;}
	.st1{fill:none;stroke:#808080;stroke-miterlimit:10;}
</style>
<path class="st0" d="M24.1,9.9c-0.7,0.3-1.4,0.5-2.2,0.6c0.8-0.5,1.4-1.2,1.7-2.1c-0.7,0.4-1.5,0.7-2.4,0.9
	c-0.7-0.7-1.7-1.2-2.7-1.2c-2.1,0-3.8,1.7-3.8,3.8c0,0.3,0,0.6,0.1,0.9c-3.1-0.2-5.9-1.7-7.8-3.9C6.7,9.3,6.5,10,6.5,10.7
	c0,1.3,0.7,2.5,1.7,3.1c-0.6,0-1.2-0.2-1.7-0.5c0,0,0,0,0,0c0,1.8,1.3,3.3,3,3.7c-0.3,0.1-0.6,0.1-1,0.1c-0.2,0-0.5,0-0.7-0.1
	c0.5,1.5,1.9,2.6,3.5,2.6c-1.3,1-2.9,1.6-4.7,1.6c-0.3,0-0.6,0-0.9-0.1c1.7,1.1,3.6,1.7,5.8,1.7c6.9,0,10.7-5.7,10.7-10.7
	c0-0.2,0-0.3,0-0.5C22.9,11.3,23.6,10.6,24.1,9.9z"/>
<circle class="st1" cx="15" cy="15" r="13.9"/>
</svg>
